<svg xmlns="http://www.w3.org/2000/svg" viewBox="0 0 32 32">
  <defs>
    <linearGradient id="bgGradient" x1="0%" y1="0%" x2="100%" y2="100%">
      <stop offset="0%" style="stop-color:#8b5cf6;stop-opacity:1" />
      <stop offset="100%" style="stop-color:#3b82f6;stop-opacity:1" />
    </linearGradient>
    <linearGradient id="textGradient" x1="0%" y1="0%" x2="100%" y2="100%">
      <stop offset="0%" style="stop-color:#ffffff;stop-opacity:1" />
      <stop offset="100%" style="stop-color:#f0f9ff;stop-opacity:1" />
    </linearGradient>
  </defs>
  
  <!-- Background circle -->
  <circle cx="16" cy="16" r="16" fill="url(#bgGradient)"/>
  
  <!-- Text transformation icon - showing AI text becoming human text -->
  <!-- Left side: Robotic/AI text (geometric) -->
  <g fill="url(#textGradient)" opacity="0.7">
    <!-- AI text representation -->
    <rect x="4" y="12" width="8" height="1.5" rx="0.3"/>
    <rect x="4" y="14.5" width="6" height="1.5" rx="0.3"/>
    <rect x="4" y="17" width="7" height="1.5" rx="0.3"/>
    <rect x="4" y="19.5" width="5" height="1.5" rx="0.3"/>
  </g>
  
  <!-- Arrow/transformation indicator -->
  <path d="M14 16 L18 16 M16 14 L18 16 L16 18" stroke="url(#textGradient)" stroke-width="1.5" stroke-linecap="round" stroke-linejoin="round" fill="none"/>
  
  <!-- Right side: Human text (curved, natural) -->
  <g fill="url(#textGradient)">
    <!-- Human text representation with curves -->
    <path d="M20 12 Q22 13 20 14.5 Q18 16 20 17.5 Q22 19 20 20.5" stroke="url(#textGradient)" stroke-width="1.5" fill="none"/>
    <path d="M22 12 Q24 13 22 14.5 Q20 16 22 17.5 Q24 19 22 20.5" stroke="url(#textGradient)" stroke-width="1.5" fill="none"/>
    <path d="M24 12 Q26 13 24 14.5 Q22 16 24 17.5 Q26 19 24 20.5" stroke="url(#textGradient)" stroke-width="1.5" fill="none"/>
  </g>
  
  <!-- Small sparkle/transformation effect -->
  <g fill="url(#textGradient)" opacity="0.8">
    <circle cx="12" cy="8" r="0.8"/>
    <circle cx="20" cy="6" r="0.6"/>
    <circle cx="26" cy="10" r="0.7"/>
    <circle cx="8" cy="24" r="0.5"/>
    <circle cx="24" cy="26" r="0.6"/>
  </g>
</svg>