<svg xmlns="http://www.w3.org/2000/svg" viewBox="0 0 32 32">
  <defs>
    <!-- Background gradient from purple to blue -->
    <linearGradient id="bgGradient" x1="0%" y1="0%" x2="100%" y2="100%">
      <stop offset="0%" style="stop-color:#8b5cf6;stop-opacity:1" />
      <stop offset="100%" style="stop-color:#3b82f6;stop-opacity:1" />
    </linearGradient>
  </defs>
  
  <!-- Background circle -->
  <circle cx="16" cy="16" r="16" fill="url(#bgGradient)"/>
  
  <!-- Magic wand (white rectangle with rounded corners) -->
  <rect x="10" y="18" width="12" height="3" rx="1.5" fill="white" transform="rotate(25 16 19.5)"/>
  
  <!-- Wand handle/notch -->
  <rect x="19" y="16.5" width="2" height="2" rx="0.5" fill="white" transform="rotate(25 20 17.5)"/>
  
  <!-- Sparkles (four-pointed stars) -->
  <!-- Large sparkle top-left -->
  <g fill="white">
    <path d="M8 8 L9 11 L12 11 L9.5 13 L10.5 16 L8 14 L5.5 16 L6.5 13 L4 11 L7 11 Z"/>
    <!-- Large sparkle top-center -->
    <path d="M16 6 L17 9 L20 9 L17.5 11 L18.5 14 L16 12 L13.5 14 L14.5 11 L12 9 L15 9 Z"/>
    <!-- Large sparkle top-right -->
    <path d="M24 8 L25 11 L28 11 L25.5 13 L26.5 16 L24 14 L21.5 16 L22.5 13 L20 11 L23 11 Z"/>
    <!-- Small sparkle bottom-right -->
    <path d="M22 22 L22.5 24 L24.5 24 L23 25 L23.5 27 L22 26 L20.5 27 L21 25 L19.5 24 L21.5 24 Z"/>
  </g>
</svg>